<svg width="48" height="48" viewBox="0 0 48 48" fill="none" xmlns="http://www.w3.org/2000/svg">
<rect width="48" height="48" fill="#323238"/>
<path fill-rule="evenodd" clip-rule="evenodd" d="M12.0834 14.0745C12.0834 13.5464 12.2932 13.0399 12.6666 12.6665C13.04 12.2931 13.5465 12.0833 14.0745 12.0833H33.9234C34.1851 12.0829 34.4443 12.1341 34.6862 12.234C34.9281 12.3339 35.1479 12.4805 35.3331 12.6654C35.5182 12.8504 35.6651 13.07 35.7652 13.3118C35.8654 13.5536 35.9169 13.8128 35.9167 14.0745V33.9233C35.917 34.1851 35.8657 34.4443 35.7657 34.6862C35.6657 34.9281 35.5189 35.1479 35.3339 35.3331C35.1489 35.5182 34.9291 35.6651 34.6873 35.7652C34.4454 35.8653 34.1862 35.9168 33.9245 35.9167H14.0745C13.813 35.9167 13.554 35.8651 13.3123 35.765C13.0707 35.6648 12.8511 35.5181 12.6662 35.3331C12.4813 35.1481 12.3346 34.9284 12.2346 34.6867C12.1346 34.445 12.0832 34.186 12.0834 33.9244V14.0745ZM21.517 21.1703H24.7443V22.791C25.2101 21.8593 26.4018 21.0208 28.1925 21.0208C31.6256 21.0208 32.4392 22.8766 32.4392 26.2815V32.5887H28.965V27.0572C28.965 25.118 28.4991 24.0238 27.3161 24.0238C25.6749 24.0238 24.9924 25.2036 24.9924 27.0572V32.5887H21.517V21.1703ZM15.5587 32.4402H19.034V21.0208H15.5587V32.4392V32.4402ZM19.5313 17.2963C19.5378 17.5939 19.4849 17.8898 19.3756 18.1666C19.2662 18.4434 19.1027 18.6956 18.8945 18.9084C18.6864 19.1211 18.4379 19.2902 18.1635 19.4056C17.8892 19.521 17.5946 19.5804 17.2969 19.5804C16.9993 19.5804 16.7046 19.521 16.4303 19.4056C16.156 19.2902 15.9074 19.1211 15.6993 18.9084C15.4912 18.6956 15.3276 18.4434 15.2183 18.1666C15.1089 17.8898 15.056 17.5939 15.0625 17.2963C15.0754 16.7122 15.3165 16.1564 15.7341 15.7479C16.1517 15.3394 16.7127 15.1106 17.2969 15.1106C17.8811 15.1106 18.4421 15.3394 18.8597 15.7479C19.2774 16.1564 19.5184 16.7122 19.5313 17.2963V17.2963Z" fill="white"/>
</svg>
